<?xml version="1.0" encoding="utf-8"?>
<!-- Generator: Adobe Illustrator 25.0.1, SVG Export Plug-In . SVG Version: 6.00 Build 0)  -->
<svg version="1.1" id="Layer_1" xmlns="http://www.w3.org/2000/svg" xmlns:xlink="http://www.w3.org/1999/xlink" x="0px" y="0px"
	 viewBox="0 0 576 53.7" style="enable-background:new 0 0 576 53.7;" xml:space="preserve">
<style type="text/css">
	.st0{fill:none;stroke:#231F20;stroke-width:6;stroke-miterlimit:10;}
</style>
<path class="st0" d="M0.1,19.6c20.5,0,20.5,20.2,41.1,20.2c20.5,0,20.5-20.2,41.1-20.2c20.5,0,20.5,20.2,41.1,20.2
	c20.5,0,20.5-20.2,41.1-20.2c20.5,0,20.5,20.2,41.1,20.2c20.5,0,20.5-20.2,41.1-20.2c20.5,0,20.5,20.2,41.1,20.2
	c20.5,0,20.5-20.2,41.1-20.2c20.5,0,20.5,20.2,41.1,20.2c20.5,0,20.5-20.2,41.1-20.2c20.5,0,20.5,20.2,41.1,20.2
	c20.5,0,20.5-20.2,41.1-20.2c20.5,0,20.5,20.2,41.1,20.2s20.5-20.2,41.1-20.2"/>
</svg>
